<?xml version="1.0" encoding="utf-8"?>
<!-- Svg Vector Icons : http://www.onlinewebfonts.com/icon -->
<!DOCTYPE svg PUBLIC "-//W3C//DTD SVG 1.1//EN" "http://www.w3.org/Graphics/SVG/1.1/DTD/svg11.dtd">
<svg version="1.1" xmlns="http://www.w3.org/2000/svg" xmlns:xlink="http://www.w3.org/1999/xlink" x="0px" y="0px" viewBox="0 0 1000 1000" enable-background="new 0 0 1000 1000" xml:space="preserve">
<metadata> Svg Vector Icons : http://www.onlinewebfonts.com/icon </metadata>
<g><g transform="translate(0.000000,511.000000) scale(0.100000,-0.100000)"><path d="M4714.9,4340.7c-713.3-141-1220.2-660.1-1340.7-1375.5c-28.6-171.7-14.3-459.9,34.7-645.9c100.1-390.4,351.5-735.8,696.9-960.6c277.9-181.9,529.3-255.5,885-255.5c355.6,0,607,73.6,885,255.5c355.6,230.9,584.5,553.9,705.1,991.2c47,167.6,47,588.6,0,756.2c-167.6,615.2-596.8,1052.6-1181.3,1203.8C5240.1,4352.9,4858,4369.3,4714.9,4340.7z M5266.7,4005.5c482.4-100.1,901.3-519.1,1001.5-1001.5c192.1-927.9-625.4-1745.4-1553.3-1553.3c-365.8,75.6-721.5,351.5-887,688.8c-257.5,519.1-163.5,1103.6,241.2,1510.4C4387.9,3966.7,4825.2,4097.5,5266.7,4005.5z"/><path d="M3601,625.1c-490.5-106.3-876.8-235-1230.4-412.9c-376.1-188-508.9-296.4-592.7-478.3c-45-98.1-47-128.8-51.1-623.4l-6.1-521.2l-65.4-218.7l-67.4-218.7l-743.9-6.1l-743.9-6.1l586.6-427.1c322.9-235,592.7-437.4,596.8-449.6c4.1-12.3-94-331.1-216.6-707.2c-122.6-376.1-220.7-686.7-216.6-690.8c4.1-2.1,273.9,188,596.8,423.1c325,237.1,594.7,431.2,600.9,431.2s275.9-194.2,600.9-431.2c322.9-235,592.7-425.1,596.8-423.1c4.1,4.1-94,314.7-216.6,690.8c-124.7,376.1-220.7,694.9-216.6,707.2c10.2,24.5,643.8,490.5,694.9,510.9c32.7,12.3,754.2-494.6,739.9-521.2c-20.4-36.8-441.5-1359.1-437.4-1371.4c4.1-10.2,271.8,175.8,594.7,410.8c325,235,592.7,427.2,594.8,427.2c4.1,0,271.8-192.1,596.8-429.2c322.9-235,592.7-425.1,596.8-419c4.1,4.1-63.3,226.9-151.3,494.6c-85.8,267.7-188,580.4-224.8,694.9l-65.4,210.5l361.8,261.6l363.8,263.7l335.2-243.2c183.9-134.9,347.4-255.5,361.8-269.8c20.4-20.4-18.4-159.4-200.3-717.4c-122.6-380.1-220.7-694.9-216.6-699c4.1-4.1,263.6,179.9,576.3,408.8c314.8,228.9,582.5,423.1,596.8,431.3c16.3,10.2,241.2-141,619.3-416.9c327-237.1,596.8-429.2,600.9-425.1c2,4.1-94,314.7-216.6,690.8s-222.8,694.9-220.8,705.1c0,12.3,267.8,214.6,594.8,449.6l592.7,429.2l-743.9,6.1l-746,4.1l-69.5,220.7l-69.5,218.7l-10.2,521.2c-12.3,611.1-24.5,660.1-218.7,838c-255.5,233-1021.9,543.7-1671.8,678.5c-282,57.2-327,61.3-384.2,38.8c-423.1-175.8-602.9-212.6-995.3-212.6c-359.7,0-506.9,24.5-803.2,141c-104.2,40.9-214.6,77.7-249.4,81.8C3905.5,680.2,3752.3,657.8,3601,625.1z M4216.2,232.7C4735.3,63,5373,79.4,5904.4,279.7l188,71.5l230.9-49.1c633.6-128.8,1340.7-421,1553.3-641.7l75.6-77.7l-51.1-159.4c-26.6-87.9-130.8-406.7-228.9-711.2l-179.9-551.8l-1015.8-6.1l-1013.7-4.1l-231,709.2l-233,711.2L4808.9-1012c-104.2-320.9-208.5-639.7-228.9-709.2l-40.9-128.8l-1015.8,4.1l-1013.7,6.1l-228.9,703.1c-263.6,809.3-261.6,762.3-55.2,895.2c369.9,237.1,880.9,429.2,1447,547.7c206.4,42.9,230.9,45,296.4,16.3C4007.7,304.2,4118.1,265.4,4216.2,232.7z M5115.5-1839.8l106.3-337.2h367.9h365.8l-296.3-214.6l-298.4-214.6l112.4-331.1c59.3-181.9,106.3-333.1,102.2-339.3c-6.1-4.1-130.8,81.7-282.1,192.1c-149.2,108.3-282.1,198.2-294.3,198.2c-10.2,0-143.1-87.9-292.3-198.2c-149.2-108.3-275.9-196.2-280-192.1c-2,4.1,38.8,149.2,96.1,322.9c55.2,173.7,98.1,327,96,341.3c-4.1,12.3-134.9,116.5-290.2,228.9L4044.5-2177h365.8h365.8l108.3,337.2c59.3,186,110.4,337.2,116.5,337.2C5005.1-1502.5,5056.2-1653.8,5115.5-1839.8z M8072.8-1850l100.1-316.8l361.8-10.2l359.7-10.2l-267.7-194.2c-147.2-106.3-278-200.3-288.2-206.4c-14.3-8.2,18.4-136.9,83.8-345.4c59.3-181.9,104.2-335.2,100.1-339.3c-6.1-4.1-134.9,85.8-288.2,198.3l-282,204.4l-282.1-206.4c-157.4-112.4-288.2-204.4-294.3-204.4c-6.1,0,38.8,149.2,98.1,329.1c61.3,181.9,106.3,337.2,102.2,345.4c-6.1,8.2-134.9,106.3-288.2,216.7l-278,202.3l359.7,6.1l359.7,4.1l106.3,337.2c59.3,186,114.5,329.1,120.6,320.9C7964.5-1527.1,8015.6-1676.2,8072.8-1850z M2166.3-1850l108.3-327l357.7-4.1l359.7-6.1l-278-200.3c-151.2-110.4-280-206.4-286.1-214.6c-6.1-10.2,34.7-157.4,92-331.1c55.2-173.7,98.1-322.9,96-331.1c-4.1-8.2-132.8,77.7-286.1,190.1l-282,202.3l-280-202.3c-155.3-112.4-284.1-196.2-288.2-188c-2,8.2,40.9,157.4,96.1,329c55.2,173.7,98.1,320.9,92,329.1c-6.1,10.2-134.9,106.3-286.1,216.6l-278,200.3l359.7,6.1l357.7,4.1l108.3,327c59.3,179.8,112.4,327,118.5,327S2107-1670.1,2166.3-1850z"/></g></g>
</svg>