<?xml version="1.0" standalone="no"?>
<!DOCTYPE svg PUBLIC "-//W3C//DTD SVG 20010904//EN"
 "http://www.w3.org/TR/2001/REC-SVG-20010904/DTD/svg10.dtd">
<svg version="1.0" xmlns="http://www.w3.org/2000/svg"
 viewBox="0 0 2600.000000 2600.000000"
 preserveAspectRatio="xMidYMid meet">
<metadata>
Created by potrace 1.15, written by Peter Selinger 2001-2017
</metadata>
<g transform="translate(0.000000,2600.000000) scale(0.100000,-0.100000)"
fill="#000000" stroke="none">
<path d="M15885 23123 c-115 -10 -331 -48 -467 -82 -897 -226 -1924 -856
-3033 -1860 -331 -300 -895 -878 -1231 -1261 -1220 -1395 -2206 -2998 -2732
-4440 -59 -164 -155 -453 -187 -562 l-16 -56 -177 -118 c-1312 -867 -2707
-2290 -3788 -3864 -1314 -1912 -2023 -3787 -2024 -5351 0 -397 36 -712 120
-1054 128 -519 306 -873 629 -1250 965 -1126 3048 -1936 5641 -2194 948 -95
2037 -111 2995 -45 2360 162 4357 762 5570 1674 550 414 923 883 1118 1406
429 1151 291 2640 -397 4308 -36 88 -65 161 -63 163 2 2 123 17 268 33 1877
213 3423 695 4514 1408 623 407 1090 913 1319 1429 274 618 372 1415 276 2251
-146 1276 -687 2672 -1607 4146 -1347 2155 -3311 4101 -4948 4901 -482 235
-881 362 -1295 410 -111 13 -376 18 -485 8z m515 -842 c776 -142 1726 -704
2790 -1650 226 -201 850 -824 1062 -1061 1297 -1448 2263 -3004 2788 -4492
185 -523 306 -1031 367 -1543 25 -214 25 -804 0 -985 -88 -629 -258 -1011
-615 -1382 -478 -495 -1210 -908 -2197 -1238 l-230 -77 -5 3341 -5 3341 -32
66 c-57 117 -173 204 -303 229 -72 14 -7761 14 -7844 0 -163 -27 -301 -157
-335 -318 -7 -36 -11 -247 -11 -652 0 -330 -2 -600 -5 -600 -2 0 -49 20 -104
44 -137 61 -343 138 -486 181 -631 191 -1147 183 -1790 -30 -88 -29 -162 -51
-163 -49 -14 11 229 559 392 884 956 1911 2560 3844 4177 5032 757 556 1465
895 2034 973 131 18 375 12 515 -14z m-5645 -7519 c1071 -231 2496 -1256 3847
-2765 1518 -1696 2636 -3695 2993 -5352 202 -939 166 -1770 -105 -2396 -158
-365 -502 -740 -970 -1055 -355 -239 -805 -466 -1292 -650 -169 -64 -550 -194
-569 -194 -5 0 -10 1274 -11 3338 l-3 3337 -32 67 c-36 77 -108 155 -174 189
-102 52 141 49 -4049 49 -2541 0 -3920 -4 -3948 -10 -106 -25 -215 -106 -265
-197 -61 -114 -57 149 -57 -3470 0 -1817 -3 -3303 -7 -3303 -3 0 -108 34 -232
76 -830 278 -1512 635 -1976 1035 -97 83 -272 260 -347 349 -484 580 -629
1581 -397 2740 290 1451 1159 3154 2417 4740 891 1122 1947 2126 2913 2768
419 279 938 537 1299 645 258 78 390 97 635 92 165 -3 208 -7 330 -33z"/>
</g>
</svg>
